<svg width="116" height="29" viewBox="0 0 116 29" fill="none" xmlns="http://www.w3.org/2000/svg">
<path d="M18.9 5.652C19.188 6.636 19.5 7.752 19.836 9C20.196 10.224 20.568 11.496 20.952 12.816C21.36 14.136 21.768 15.456 22.176 16.776C22.584 18.096 22.98 19.32 23.364 20.448C23.676 19.224 23.988 17.892 24.3 16.452C24.636 15.012 24.948 13.524 25.236 11.988C25.524 10.452 25.8 8.928 26.064 7.416C26.352 5.88 26.616 4.404 26.856 2.988H32.688C31.848 7.164 30.876 11.4 29.772 15.696C28.692 19.992 27.516 24.072 26.244 27.936H21.096C20.256 25.632 19.44 23.22 18.648 20.7C17.856 18.156 17.076 15.612 16.308 13.068C15.54 15.612 14.772 18.156 14.004 20.7C13.236 23.22 12.432 25.632 11.592 27.936H6.444C5.172 24.072 3.984 19.992 2.88 15.696C1.8 11.4 0.84 7.164 0 2.988H6.084C6.324 4.404 6.588 5.88 6.876 7.416C7.164 8.928 7.464 10.452 7.776 11.988C8.088 13.524 8.4 15.012 8.712 16.452C9.048 17.892 9.384 19.224 9.72 20.448C10.152 19.272 10.572 18.024 10.98 16.704C11.388 15.384 11.784 14.064 12.168 12.744C12.552 11.424 12.9 10.152 13.212 8.928C13.548 7.704 13.848 6.612 14.112 5.652H18.9Z" fill="#4F46E5"/>
<path d="M52.4534 18.432C52.4534 19.92 52.2374 21.288 51.8054 22.536C51.3734 23.76 50.7494 24.816 49.9334 25.704C49.1174 26.568 48.1334 27.24 46.9814 27.72C45.8534 28.2 44.5814 28.44 43.1654 28.44C41.7734 28.44 40.5014 28.2 39.3494 27.72C38.2214 27.24 37.2494 26.568 36.4334 25.704C35.6174 24.816 34.9814 23.76 34.5254 22.536C34.0694 21.288 33.8414 19.92 33.8414 18.432C33.8414 16.944 34.0694 15.588 34.5254 14.364C35.0054 13.14 35.6534 12.096 36.4694 11.232C37.3094 10.368 38.2934 9.696 39.4214 9.216C40.5734 8.736 41.8214 8.496 43.1654 8.496C44.5334 8.496 45.7814 8.736 46.9094 9.216C48.0614 9.696 49.0454 10.368 49.8614 11.232C50.6774 12.096 51.3134 13.14 51.7694 14.364C52.2254 15.588 52.4534 16.944 52.4534 18.432ZM46.9814 18.432C46.9814 16.776 46.6454 15.48 45.9734 14.544C45.3254 13.584 44.3894 13.104 43.1654 13.104C41.9414 13.104 40.9934 13.584 40.3214 14.544C39.6494 15.48 39.3134 16.776 39.3134 18.432C39.3134 20.088 39.6494 21.408 40.3214 22.392C40.9934 23.352 41.9414 23.832 43.1654 23.832C44.3894 23.832 45.3254 23.352 45.9734 22.392C46.6454 21.408 46.9814 20.088 46.9814 18.432Z" fill="#4F46E5"/>
<path d="M68.0206 13.752C67.5406 13.632 66.9766 13.512 66.3286 13.392C65.6806 13.248 64.9846 13.176 64.2406 13.176C63.9046 13.176 63.4966 13.212 63.0166 13.284C62.5606 13.332 62.2126 13.392 61.9726 13.464V27.936H56.6086V10.008C57.5686 9.672 58.6966 9.36 59.9926 9.072C61.3126 8.76 62.7766 8.604 64.3846 8.604C64.6726 8.604 65.0206 8.628 65.4286 8.676C65.8366 8.7 66.2446 8.748 66.6526 8.82C67.0606 8.868 67.4686 8.94 67.8766 9.036C68.2846 9.108 68.6326 9.204 68.9206 9.324L68.0206 13.752Z" fill="#4F46E5"/>
<path d="M77.1601 15.84C77.6881 15.264 78.2281 14.664 78.7801 14.04C79.3561 13.416 79.9081 12.804 80.4361 12.204C80.9641 11.58 81.4561 10.992 81.9121 10.44C82.3921 9.888 82.8001 9.408 83.1361 9H89.5081C88.2361 10.464 86.9881 11.868 85.7641 13.212C84.5641 14.532 83.2441 15.9 81.8041 17.316C82.5241 17.964 83.2681 18.744 84.0361 19.656C84.8041 20.544 85.5481 21.468 86.2681 22.428C86.9881 23.388 87.6481 24.348 88.2481 25.308C88.8481 26.268 89.3521 27.144 89.7601 27.936H83.6041C83.2201 27.312 82.7761 26.628 82.2721 25.884C81.7921 25.116 81.2761 24.36 80.7241 23.616C80.1721 22.848 79.5841 22.116 78.9601 21.42C78.3601 20.724 77.7601 20.136 77.1601 19.656V27.936H71.7961V0.863999L77.1601 0V15.84Z" fill="#4F46E5"/>
<path d="M98.0078 27.936H92.6437V9H98.0078V27.936ZM98.5117 3.528C98.5117 4.512 98.1877 5.292 97.5397 5.868C96.9157 6.42 96.1717 6.696 95.3077 6.696C94.4437 6.696 93.6877 6.42 93.0397 5.868C92.4157 5.292 92.1038 4.512 92.1038 3.528C92.1038 2.544 92.4157 1.776 93.0397 1.224C93.6877 0.647999 94.4437 0.36 95.3077 0.36C96.1717 0.36 96.9157 0.647999 97.5397 1.224C98.1877 1.776 98.5117 2.544 98.5117 3.528Z" fill="#4F46E5"/>
<path d="M102.87 4.284L108.234 3.42V9H114.678V13.464H108.234V20.124C108.234 21.252 108.426 22.152 108.81 22.824C109.218 23.496 110.022 23.832 111.222 23.832C111.798 23.832 112.386 23.784 112.986 23.688C113.61 23.568 114.174 23.412 114.678 23.22L115.434 27.396C114.786 27.66 114.066 27.888 113.274 28.08C112.482 28.272 111.51 28.368 110.358 28.368C108.894 28.368 107.682 28.176 106.722 27.792C105.762 27.384 104.994 26.832 104.418 26.136C103.842 25.416 103.434 24.552 103.194 23.544C102.978 22.536 102.87 21.42 102.87 20.196V4.284Z" fill="#4F46E5"/>
</svg>
